<svg width="12" height="14" viewBox="0 0 12 14" fill="none" xmlns="http://www.w3.org/2000/svg">
<path d="M4.96166 0.546805C5.00943 0.497892 5.06651 0.459045 5.12955 0.432556C5.19258 0.406067 5.26027 0.392474 5.32865 0.392579C5.39702 0.392684 5.46467 0.406484 5.52762 0.433166C5.59057 0.459848 5.64754 0.498871 5.69516 0.54793L11.5249 6.52955C11.6273 6.63459 11.6846 6.77548 11.6846 6.92217C11.6846 7.06886 11.6273 7.20975 11.5249 7.31479L5.69516 13.2964C5.64746 13.3454 5.59044 13.3843 5.52745 13.4109C5.46446 13.4375 5.39678 13.4512 5.32841 13.4512C5.26004 13.4512 5.19236 13.4375 5.12937 13.4109C5.06638 13.3843 5.00935 13.3454 4.96166 13.2964C4.86353 13.196 4.8086 13.0611 4.8086 12.9207C4.8086 12.7802 4.86353 12.6454 4.96166 12.5449L10.4438 6.92217L4.96166 1.29718C4.86387 1.19677 4.80915 1.06215 4.80915 0.921992C4.80915 0.781834 4.86387 0.647214 4.96166 0.546805ZM0.461653 0.546805C0.509424 0.497892 0.56651 0.459045 0.62954 0.432556C0.692571 0.406067 0.76027 0.392474 0.828641 0.392579C0.897011 0.392684 0.964668 0.406484 1.02762 0.433166C1.09057 0.459848 1.14753 0.498871 1.19515 0.54793L7.02491 6.52955C7.1273 6.63459 7.18461 6.77548 7.18461 6.92217C7.18461 7.06886 7.1273 7.20975 7.02491 7.31479L1.19515 13.2964C1.14746 13.3454 1.09043 13.3843 1.02744 13.4109C0.964452 13.4375 0.896774 13.4512 0.828403 13.4512C0.760033 13.4512 0.692355 13.4375 0.629365 13.4109C0.566375 13.3843 0.509349 13.3454 0.461653 13.2964C0.363528 13.196 0.308594 13.0611 0.308594 12.9207C0.308594 12.7802 0.363528 12.6454 0.461653 12.5449L5.94378 6.92217L0.461653 1.29718C0.363864 1.19677 0.309142 1.06215 0.309142 0.921992C0.309142 0.781834 0.363864 0.647214 0.461653 0.546805Z" fill="white"/>
</svg>
