<svg width="20" height="20" viewBox="0 0 20 20" fill="none" xmlns="http://www.w3.org/2000/svg">
<path d="M12.5832 1.08779C12.2467 0.743448 11.8448 0.469838 11.4011 0.283034C10.9574 0.0962295 10.4808 0 9.99937 0C9.51793 0 9.04135 0.0962295 8.59763 0.283034C8.15391 0.469838 7.752 0.743448 7.41553 1.08779L6.638 1.88532L5.52545 1.87157C5.04387 1.86587 4.56601 1.95652 4.11998 2.13819C3.67394 2.31986 3.26873 2.58888 2.92818 2.92943C2.58763 3.26998 2.31861 3.67519 2.13694 4.12123C1.95527 4.56726 1.86462 5.04512 1.87032 5.5267L1.88282 6.63925L1.08779 7.41678C0.743448 7.75325 0.469838 8.15516 0.283034 8.59888C0.0962295 9.0426 0 9.51919 0 10.0006C0 10.4821 0.0962295 10.9586 0.283034 11.4024C0.469838 11.8461 0.743448 12.248 1.08779 12.5845L1.88407 13.362L1.87032 14.4745C1.86462 14.9561 1.95527 15.434 2.13694 15.88C2.31861 16.3261 2.58763 16.7313 2.92818 17.0718C3.26873 17.4124 3.67394 17.6814 4.11998 17.8631C4.56601 18.0447 5.04387 18.1354 5.52545 18.1297L6.638 18.1172L7.41553 18.9122C7.752 19.2566 8.15391 19.5302 8.59763 19.717C9.04135 19.9038 9.51793 20 9.99937 20C10.4808 20 10.9574 19.9038 11.4011 19.717C11.8448 19.5302 12.2467 19.2566 12.5832 18.9122L13.3608 18.1159L14.4733 18.1297C14.9549 18.1354 15.4327 18.0447 15.8788 17.8631C16.3248 17.6814 16.73 17.4124 17.0706 17.0718C17.4111 16.7313 17.6801 16.3261 17.8618 15.88C18.0435 15.434 18.1341 14.9561 18.1284 14.4745L18.1159 13.362L18.911 12.5845C19.2553 12.248 19.5289 11.8461 19.7157 11.4024C19.9025 10.9586 19.9987 10.4821 19.9987 10.0006C19.9987 9.51919 19.9025 9.0426 19.7157 8.59888C19.5289 8.15516 19.2553 7.75325 18.911 7.41678L18.1147 6.63925L18.1284 5.5267C18.1341 5.04512 18.0435 4.56726 17.8618 4.12123C17.6801 3.67519 17.4111 3.26998 17.0706 2.92943C16.73 2.58888 16.3248 2.31986 15.8788 2.13819C15.4327 1.95652 14.9549 1.86587 14.4733 1.87157L13.3608 1.88407L12.5832 1.08904V1.08779ZM12.942 8.56807L9.19184 12.3182C9.13378 12.3764 9.06481 12.4226 8.98888 12.4541C8.91294 12.4856 8.83154 12.5018 8.74933 12.5018C8.66711 12.5018 8.58571 12.4856 8.50978 12.4541C8.43384 12.4226 8.36487 12.3764 8.30681 12.3182L6.43174 10.4431C6.37363 10.385 6.32753 10.316 6.29608 10.2401C6.26463 10.1642 6.24844 10.0828 6.24844 10.0006C6.24844 9.91844 6.26463 9.83706 6.29608 9.76114C6.32753 9.68521 6.37363 9.61622 6.43174 9.55811C6.48985 9.5 6.55884 9.4539 6.63477 9.42245C6.71069 9.391 6.79207 9.37481 6.87426 9.37481C6.95644 9.37481 7.03782 9.391 7.11374 9.42245C7.18967 9.4539 7.25866 9.5 7.31677 9.55811L8.74933 10.9919L12.057 7.68304C12.1743 7.56567 12.3335 7.49974 12.4995 7.49974C12.6654 7.49974 12.8246 7.56567 12.942 7.68304C13.0593 7.8004 13.1253 7.95958 13.1253 8.12555C13.1253 8.29153 13.0593 8.45071 12.942 8.56807Z" fill="#6022EA"/>
</svg>
